/* XPM */
static const char *block_green[] = {
/* columns rows colors chars-per-pixel */
"64 64 32 1 ",
"  c #353535354141",
". c #4DA34DA3583C",
"X c #58445844623A",
"o c #1A1AA0A07474",
"O c #1E37A9FE78CB",
"+ c #2E20A9AF7858",
"@ c #2DF8AC3A798C",
"# c #20F4B03C7BB0",
"$ c #2201B2A17CCC",
"% c #22E1B49E7DB8",
"& c #77FF77FF8013",
"* c #2754BEC0826A",
"= c #27A3BF7482BD",
"- c #2C8AC3C284AD",
"; c #2C7EC4838509",
": c #2C2CC9C98787",
"> c #38DCD4C89317",
", c #3BB1D73C95AB",
"< c #5207CAEB9A1F",
"1 c #47F5E1DEA0D8",
"2 c #57ABE837AB83",
"3 c #58B4F051B011",
"4 c #5959F0F0B0B0",
"5 c #80898089881C",
"6 c #888A888A8FA3",
"7 c #AA89AA89AF9D",
"8 c #B3ACB3ACB834",
"9 c #EE13EE13EF24",
"0 c #F783F783F804",
"q c #F825F825F89D",
"w c #F8F6F8F6F961",
"e c white",
/* pixels */
"eeee98&X                                                 X&89eee",
"eew6                                                         6we",
"ew                                                             w",
"e6                                                             6",
"9                                                               ",
"8     <244444444444444444444444444444444444444444444444442<     ",
"&    <44444444444444444444444444444444444444444444444444444<    ",
"X    2444444444444444444444444444444444444444444444444444442    ",
"     31,:::::::::::::::::::::::::::::::::::::::::::::::::,13    ",
"     >:::::::::::::::::::::::::::::::::::::::::::::::::::::>    ",
"     :::::::::::::::::::::::::::::::::::::::::::::::::::::::    ",
"     :::::::::::::::::::::::::::::::::::::::::::::::::::::::    ",
"     :::::::*OoO*:::::::::::::::::::::::::::::::*OoO*:::::::    ",
"     ::::::#ooooo$:::::::::::::::::::::::::::::#ooooo$::::::    ",
"     :::::*ooooooo*:::::::::::::::::::::::::::*ooooooo*:::::    ",
"     :::::OoooooooO:::::::::::::::::::::::::::OoooooooO:::::    ",
"     :::::ooooooooo:::::::::::::::::::::::::::ooooooooo:::::    ",
"     :::::OoooooooO:::::::::::::::::::::::::::OoooooooO:::::    ",
"     :::::*ooooooo*:::::::::::::::::::::::::::*ooooooo*:::::    ",
"     ::::::$ooooo%:::::::::::::::::::::::::::::$ooooo%::::::    ",
"     :::::::*OoO*:::::::::::::::::::::::::::::::*OoO*:::::::    ",
"     :::::::::::::::::::::::::::::::::::::::::::::::::::::::    ",
"     :::::::::::::::::::::::::::::::::::::::::::::::::::::::    ",
"     :::::::::::::::::::::::::::::::::::::::::::::::::::::::    ",
"     :::::::::::::::::::::::::::::::::::::::::::::::::::::::    ",
"     :::::::::::::::::::::::::::::::::::::::::::::::::::::::    ",
"     :::::::::::::::::::::::::::::::::::::::::::::::::::::::    ",
"     :::::::::::::::::::::::::::::::::::::::::::::::::::::::    ",
"     :::::::::::::::::::::::::::::::::::::::::::::::::::::::    ",
"     :::::::::::::::::::::::::::::::::::::::::::::::::::::::    ",
"     :::::::::::::::::::::::::::::::::::::::::::::::::::::::    ",
"     :::::::::::::::::::::::::::::::::::::::::::::::::::::::    ",
"     :::::::::::::::::::::::::::::::::::::::::::::::::::::::    ",
"     :::::::::::::::::::::::::::::::::::::::::::::::::::::::    ",
"     :::::::::::::::::::::::::::::::::::::::::::::::::::::::    ",
"     :::::::::::::::::::::::::::::::::::::::::::::::::::::::    ",
"     :::::::::::::::::::::::::::::::::::::::::::::::::::::::    ",
"     :::::::::::::::::::::::::::::::::::::::::::::::::::::::    ",
"     :::::::::::::::::::::::::::::::::::::::::::::::::::::::    ",
"     :::::::::::::::::::::::::::::::::::::::::::::::::::::::    ",
"     :::::::::::::::::::::::::::::::::::::::::::::::::::::::    ",
"     :::::::::::::::::::::::::::::::::::::::::::::::::::::::    ",
"     :::::::::::::::::::::::::::::::::::::::::::::::::::::::    ",
"     :::::::::::::::::::::::::::::::::::::::::::::::::::::::    ",
"     :::::::::::::::::::::::::::::::::::::::::::::::::::::::    ",
"     :::::::::::::::::::::::::::::::::::::::::::::::::::::::    ",
"     :::::::::::::::::::::::::::::::::::::::::::::::::::::::    ",
"     :::::::*OoO*:::::::::::::::::::::::::::::::*OoO*:::::::    ",
"     ::::::#ooooo$:::::::::::::::::::::::::::::#ooooo$::::::    ",
"     :::::*ooooooo*:::::::::::::::::::::::::::*ooooooo*:::::    ",
"     :::::OoooooooO:::::::::::::::::::::::::::OoooooooO:::::    ",
"     :::::ooooooooo:::::::::::::::::::::::::::ooooooooo:::::    ",
"     :::::OoooooooO:::::::::::::::::::::::::::OoooooooO:::::    ",
"     :::::*ooooooo*:::::::::::::::::::::::::::*ooooooo*:::::    ",
"     ::::::$ooooo%:::::::::::::::::::::::::::::$ooooo%::::::    ",
"     :::::::*OoO*:::::::::::::::::::::::::::::::*OoO*:::::::    ",
"     :::::::::::::::::::::::::::::::::::::::::::::::::::::::    ",
".    ;:::::::::::::::::::::::::::::::::::::::::::::::::::::;    ",
"&    @:::::::::::::::::::::::::::::::::::::::::::::::::::::@    ",
"7     +-:::::::::::::::::::::::::::::::::::::::::::::::::-+     ",
"9                                                               ",
"e5                                                             5",
"eq                                                             q",
"ee05                                                         50e"
};
