/* XPM */
static const char *sign_exit[] = {
/* columns rows colors chars-per-pixel */
"64 64 101 2 ",
"   c #353735364141",
".  c #3929372C41FC",
"X  c #45A23B3640EA",
"o  c #4D443E0140C2",
"O  c #44AC44AC4FCD",
"+  c #52FE41F5438B",
"@  c #5A5542C7407C",
"#  c #4D3A4D3A57D9",
"$  c #52E752E75D30",
"%  c #6EE14E1E4608",
"&  c #7684516B46AA",
"*  c #7E425C84536D",
"=  c #56FF56FF6109",
"-  c #5F225F2268B0",
";  c #655265526E82",
":  c #6BD86BD874A6",
">  c #761776177E48",
",  c #87A753583F8C",
"<  c #88D253C53F86",
"1  c #A5285E203EF0",
"2  c #AAAA5E5E3939",
"3  c #B0BE625C3EB3",
"4  c #B8AB65423E89",
"5  c #C6C96A6D3E41",
"6  c #A61D65FB4A9C",
"7  c #AF3769E94B5C",
"8  c #B50379FA610B",
"9  c #C7BD6C694079",
"0  c #CA706D7740D6",
"q  c #CC467147451A",
"w  c #CC85764F4B8D",
"e  c #CD8078564DD1",
"r  c #D1CE739B460E",
"t  c #D52E770D4944",
"y  c #D62679204B99",
"u  c #DEB87E5E4F34",
"i  c #D0087D9553AF",
"p  c #D3FF7F225437",
"a  c #DD277EE6507A",
"s  c #DFB082985455",
"d  c #D45A85755C4C",
"f  c #E00185A75830",
"g  c #E0A383C1557C",
"h  c #E4E787575908",
"j  c #E3FF8A525CF2",
"k  c #E88689E05B61",
"l  c #C1B580CE6433",
"z  c #D6748ADF628D",
"x  c #DA828D456426",
"c  c #DC68932F6B1F",
"v  c #DDCB9A12738D",
"b  c #E41B8E8F623A",
"n  c #E56B91F26623",
"m  c #F02892DE64EC",
"M  c #E69296346B3D",
"N  c #F16C945C6680",
"B  c #E4CB9CEC74A2",
"V  c #E9119CC772D9",
"C  c #FAF79F9C726F",
"Z  c #EA36A02F76D8",
"A  c #E2CAA4687F1E",
"S  c #EB3CA4627BEC",
"D  c #799579958191",
"F  c #867886788DB1",
"G  c #888A888A8FA3",
"H  c #8D678D679436",
"J  c #90F890F89791",
"K  c #AE42AE42B31C",
"L  c #B3ACB3ACB834",
"P  c #BA58BA58BE7B",
"I  c #E4BCA753822D",
"U  c #E60FAB2E86B2",
"Y  c #E9E3AA5A842F",
"T  c #E7C2AE728A4D",
"R  c #EC5EB1BE8CDC",
"E  c #F0CDB3BF8DCD",
"W  c #EB7AB5A79246",
"Q  c #EE85B8D59544",
"!  c #F01EC0019DFC",
"~  c #F257BA89960D",
"^  c #F392BE589A8A",
"/  c #F5D5C2B09F55",
"(  c #F44AC5D9A405",
")  c #F57DCAD2AA08",
"_  c #F942CCDCAB46",
"`  c #FBE1D5E4B607",
"'  c #FBE5D7F3B8B2",
"]  c #FDCFDC2ABD74",
"[  c #C060C060C427",
"{  c #D16AD16AD42E",
"}  c #D289D289D53C",
"|  c #DAFCDAFCDD2F",
" . c #FF63DF9DC158",
".. c #FFFFE0E0C2C2",
"X. c #E6E2E6E2E860",
"o. c #EDEBEDEBEEFE",
"O. c #F00FF00FF101",
"+. c #F2A2F2A2F36D",
"@. c #F5FCF5FCF695",
"#. c #F8F1F8F1F95C",
"$. c #2ECC71",
/* pixels */
"$.$.$.$.$.$.$.$.$.$.$.$.$.$.$.$.$.$.$.$.$.$.$.$.$.$.$.$.o.L J ;   # > K X.$.$.$.$.$.$.$.$.$.$.$.$.$.$.$.$.$.$.$.$.$.$.$.$.$.$.$.",
"$.$.$.$.$.$.$.$.$.$.$.$.$.$.$.$.$.$.$.$.$.$.$.$.$.$.| $                   $ } $.$.$.$.$.$.$.$.$.$.$.$.$.$.$.$.$.$.$.$.$.$.$.$.$.",
"$.$.$.$.$.$.$.$.$.$.$.$.$.$.$.$.$.$.$.$.$.$.$.$.$.F                           F #.$.$.$.$.$.$.$.$.$.$.$.$.$.$.$.$.$.$.$.$.$.$.$.",
"$.$.$.$.$.$.$.$.$.$.$.$.$.$.$.$.$.$.$.$.$.$.$.@.;                               $ +.$.$.$.$.$.$.$.$.$.$.$.$.$.$.$.$.$.$.$.$.$.$.",
"$.$.$.$.$.$.$.$.$.$.$.$.$.$.$.$.$.$.$.$.$.$.#.-           + < 1 5 1 , o           $ #.$.$.$.$.$.$.$.$.$.$.$.$.$.$.$.$.$.$.$.$.$.",
"$.$.$.$.$.$.$.$.$.$.$.$.$.$.$.$.$.$.$.$.$.$.F         o 3 5 5 5 5 5 5 5 4 X         F $.$.$.$.$.$.$.$.$.$.$.$.$.$.$.$.$.$.$.$.$.",
"$.$.$.$.$.$.$.$.$.$.$.$.$.$.$.$.$.$.$.$.$.{         @ 5 5 5 5 5 5 5 5 5 5 5 @         { $.$.$.$.$.$.$.$.$.$.$.$.$.$.$.$.$.$.$.$.",
"$.$.$.$.$.$.$.$.$.$.$.$.$.$.$.$.$.$.$.$.$.=       X 5 5 5 5 5 5 5 5 5 5 5 5 5 X       $ $.$.$.$.$.$.$.$.$.$.$.$.$.$.$.$.$.$.$.$.",
"$.$.$.$.o.L D =                                   4 5 5 5 5 5 5 5 5 5 5 5 5 5 4                                   = D L o.$.$.$.",
"$.$.#.G                                         o 5 5 5 5 5 5 5 5 5 5 5 5 5 5 5 o                                         G #.$.",
"$.#.                                            , 5 5 5 5 5 5 5 5 5 5 5 5 5 5 5 ,                                             #.",
"$.G                                             1 5 5 5 5 5 5 5 5 5 5 5 5 5 5 5 1                                             G ",
"o.        . * 8 C C C C C C C C C C C C C C C C C C C C C C C C C C C C C C C C C C C C C C C C C C C C C C C C C 8 * .         ",
"L       . l C C C C C C C C C C C C C C C C C C C C C C C C C C C C C C C C C C C C C C C C C C C C C C C C C C C C C l .       ",
"D       * C C C C C C C C C C C C C C C C C C C C C C C C C C C C C C C C C C C C C C C C C C C C C C C C C C C C C C C *       ",
"=       8 C C C C C C C C C C C C C C C C C C C C C C C C C C C C C C C C C C C C C C C C C C C C C C C C C C C C C C C 8       ",
"        C C m k u u u u u u u u u u u u u u u u u u u u u u u u u u u u u u u u u u u u u u u u u u u u u u u u u k m C C       ",
"        C h u u u u u u u u u u u u u u u u u u u u u u u u u u u u u u u u u u u u u u u u u u u u u u u u u u u u u h C       ",
"        N u u u u u u u u u u u u u u u u u u u u u u u u u u u u u u u u u u u u u u u u u u u u u u u u u u u u u u u N       ",
"        k u u u y 0 0 y u u u u u u u u u u u u u u u u u u u u u u u u u u u u u u u u u u u u u u u u u y 0 0 y u u u k       ",
"        u u u y 5 5 5 5 y u u u u u u u u u u u u u u u u u u u u u u u u u u u u u u u u u u u u u u u y 5 5 5 5 y u u u       ",
"        u u u 0 5 5 5 5 0 u u u u u u u u u u u u u u u u u u u u u u u u u u u u u u u u u u u u u u u 0 5 5 5 5 0 u u u       ",
"        u u u 0 5 5 5 5 0 u u u u u u u u u u u u u u u u u u u u u u u u u u u u u u u u u u u u u u u 0 5 5 5 5 0 u u u       ",
"        u u u y 5 5 5 5 y u u u u u u u u u u u u u u u u u u u u u u u u u u u u u u u u u u u u u u u y 5 5 5 5 y u u u       ",
"        u u u u y 0 0 y u u u u u u u u u u u u u u u u u u u u u u u u u u u u u u u u u u u u u u u u u y 0 0 y u u u u       ",
"        u u u u u u u u u g j j b b n M M V j u u u u u u u u u u u u u u u u u u u b S Z V V V V V V V j u u u u u u u u       ",
"        u u u u u u u u s .................._ u u u u s u u u g j u u u u u u u u u ( ..................] u u u u u u u u       ",
"        u u u u u u u u g ..................` u u a E ..b u s ` ..S u u S ' ' ' ' M ( ..................] u u u u u u u u       ",
"-       + u u u u u u u s ..................' u s ^ ......j ~ ......~ s ^ ........Y ( ..................] u u u u u u u +       ",
"P         + u u u u u u s ..................] s _ ..................../ ~ ........Y ) ..................` u u u u u u +         ",
"$.;         + u u u u u s ............] ` _ T g ......................S Q ........Y c ) ) ..........' ] R u u u u u +         = ",
"$.#.-         @ u u u u s ................9 5 u d ..................T q Q ........Y 0 5 q ..........w 5 0 u u u u +         $ @.",
"$.$.#.-         u u u u s ................q r u 5 z ..............( 9 t Q ........Y t 0 y ..........q 5 q u u u u         $ @.$.",
"$.$.>         + u u u u s ................h u u y 5 ( ............I r u Q ........Y u u b ..........a u u u u u u +         : #.",
"$.D         + u u u u u s ................j u u u R ................S u Q ........Y u u M ..........u u u u u u u u +         : ",
"[         + u u u u u u f ................f u u S ....................V Q ........Y u u B ........' u u u u u u u u u +         ",
"-       + u u u u u u u f .......... ......._ M ........................Q ........Y u u S ........( u u u u u u u u u u +       ",
"        u u u u u u u u f ....................( ..........T ( ..........Q ........Y u u R ........W u u u u u u u u u u u       ",
"        u u u u u u u u f ....................a ( ......) 9 q ] ......d Q ........Y u u ^ ........I u u u u u u u u u u u       ",
"        u u u u u u u u f ....................q 5 U ....q r 0 w ....p 5 c ! ! ! ! x u u ( ........B u u u u u u u u u u u       ",
"        u u u u u u u u f ....................s 0 5 d w 0 u u 5 q q 5 y q 5 5 5 5 r u u t d x v A p u u u u u u u u u u u       ",
"        u u u u u u u u u I T A v c z d i e q u u r 5 5 u u u u 5 5 y u y q q q q y u u 0 5 5 5 5 t u u u u u u u u u u u       ",
"        u u u u u u u u u 5 5 5 5 5 5 5 5 5 5 u u u y u u u u u u u u u u u u u u u u u u y y t r u u u u u u u u u u u u       ",
"        u u u u u u u u u r r r t t y y y u u u u u u u u u u u u u u u u u u u u u u u u u u u u u u u u u u u u u u u u       ",
"        u u u u y 0 0 y u u u u u u u u u u u u u u u u u u u u u u u u u u u u u u u u u u u u u u u u u y 0 0 y u u u u       ",
"        u u u y 5 5 5 5 y u u u u u u u u u u u u u u u u u u u u u u u u u u u u u u u u u u u u u u u y 5 5 5 5 y u u u       ",
"        u u u 0 5 5 5 5 0 u u u u u u u u u u u u u u u u u u u u u u u u u u u u u u u u u u u u u u u 0 5 5 5 5 0 u u u       ",
"        u u u 0 5 5 5 5 0 u u u u u u u u u u u u u u u u u u u u u u u u u u u u u u u u u u u u u u u 0 5 5 5 5 0 u u u       ",
"        u u u y 5 5 5 5 y u u u u u u u u u u u u u u u u u u u u u u u u u u u u u u u u u u u u u u u y 5 5 5 5 y u u u       ",
"$       6 u u u y 0 0 y u u u u u u u u u u u u u u u u u u u u u u u u u u u u u u u u u u u u u u u u u y 0 0 y u u u 6       ",
"D       % u u u u u u u u u u u u u u u u u u u u u u u u u u u u u u u u u u u u u u u u u u u u u u u u u u u u u u u %       ",
"K       . 7 u u u u u u u u u u u u u u u u u u u u u u u u u u u u u u u u u u u u u u u u u u u u u u u u u u u u u 7 .       ",
"O.        . & 6 u u u u u u u u u u u u u u u u u u u u u u u u u u u u u u u u u u u u u u u u u u u u u u u u u 6 &           ",
"$.F                                             2 2 2 2 2 2 2 2 2 2 2 2 2 2 2 2 2                                             F ",
"$.#.O                                           2 2 2 2 2 2 2 2 2 2 2 2 2 2 2 2 2                                           O #.",
"$.$.#.H                                         2 2 2 2 2 2 2 2 2 2 2 2 2 2 2 2 2                                         H #.$.",
"$.$.$.$.o.L > =                                 2 2 2 2 2 2 2 2 2 2 2 2 2 2 2 2 2                                 = > L o.$.$.$.",
"$.$.$.$.$.$.$.$.$.$.$.$.$.$.$.$.$.$.$.$.        5 5 5 5 5 5 5 5 5 5 5 5 5 5 5 5 5         $.$.$.$.$.$.$.$.$.$.$.$.$.$.$.$.$.$.$.",
"$.$.$.$.$.$.$.$.$.$.$.$.$.$.$.$.$.$.$.$.        5 5 5 5 5 5 5 5 5 5 5 5 5 5 5 5 5         $.$.$.$.$.$.$.$.$.$.$.$.$.$.$.$.$.$.$.",
"$.$.$.$.$.$.$.$.$.$.$.$.$.$.$.$.$.$.$.$.        5 5 5 5 5 5 5 5 5 5 5 5 5 5 5 5 5         $.$.$.$.$.$.$.$.$.$.$.$.$.$.$.$.$.$.$.",
"$.$.$.$.$.$.$.$.$.$.$.$.$.$.$.$.$.$.$.$.        5 5 5 5 5 5 5 5 5 5 5 5 5 5 5 5 5         $.$.$.$.$.$.$.$.$.$.$.$.$.$.$.$.$.$.$.",
"$.$.$.$.$.$.$.$.$.$.$.$.$.$.$.$.$.$.$.$.        5 5 5 5 5 5 5 5 5 5 5 5 5 5 5 5 5         $.$.$.$.$.$.$.$.$.$.$.$.$.$.$.$.$.$.$.",
"$.$.$.$.$.$.$.$.$.$.$.$.$.$.$.$.$.$.$.$.        5 5 5 5 5 5 5 5 5 5 5 5 5 5 5 5 5         $.$.$.$.$.$.$.$.$.$.$.$.$.$.$.$.$.$.$.",
"$.$.$.$.$.$.$.$.$.$.$.$.$.$.$.$.$.$.$.$.        5 5 5 5 5 5 5 5 5 5 5 5 5 5 5 5 5         $.$.$.$.$.$.$.$.$.$.$.$.$.$.$.$.$.$.$."
};
