/* XPM */
static const char *wall[] = {
/* columns rows colors chars-per-pixel */
"64 64 38 1 ",
"  c #632442A43D5B",
". c #657F43543D27",
"X c #353535354141",
"o c #3A4C36B240D2",
"O c #3B1837C041BE",
"+ c #3C1238E642F6",
"@ c #467146715177",
"# c #4C8A4C8A5733",
"$ c #75754D5B4369",
"% c #7C96540A472B",
"& c #6FEE6FEE787D",
"* c #76EC76EC7F11",
"= c #83A74C263A98",
"- c #9F9F54543838",
"; c #886A61FA55F3",
": c #B18463ED456D",
"> c #BDBD63634141",
", c #C7166B464511",
"< c #CBE56E944749",
"1 c #CCE76FA14836",
"2 c #C1E171AA4CA3",
"3 c #CE5E707847E2",
"4 c #D66177474B7D",
"5 c #DD257D074E89",
"6 c #E066809651ED",
"7 c #D8CA8D3A69F1",
"8 c #FAFA9F9F7272",
"9 c #7B217B218305",
"0 c #7FE67FE68782",
"q c #859785978CDD",
"w c #A821A821AD59",
"e c #ABF8ABF8B0F6",
"r c #E78AE78AE8FE",
"t c #EBAEEBAEECE3",
"y c #F4A5F4A5F551",
"u c #F811F811F889",
"i c #F8A9F8A9F918",
"p c #AFD00F",
/* pixels */
"ppppre&@XXXXXXXXXXXXXXXXXXXXXXXXXXXXXXXXXXXXXXXXXXXXXXXXX@&erppp",
"ppy9XXXXXXXXXXXXXXXXXXXXXXXXXXXXXXXXXXXXXXXXXXXXXXXXXXXXXXXXX9yp",
"pyXXXXXXXXXXXXXXXXXXXXXXXXXXXXXXXXXXXXXXXXXXXXXXXXXXXXXXXXXXXXXy",
"p9XXXXXXXXXXXXXXXXXXXXXXXXXXXXXXXXXXXXXXXXXXXXXXXXXXXXXXXXXXXXX9",
"rXXXX+;788888888888888888888888888888888888888888888888887;+XXXX",
"eXXXO8888888888888888888888888888888888888888888888888888888oXXX",
"&XXX%6888888888888888888888888888888888888888888888888888886%XXX",
"@XXX2<1<5555555555555555555555555555555555555555555555555<1<2XXX",
"XXXX4<<<<55555555555555555555555555555555555555555555555<<<<4XXX",
"XXXX3<<<<<555555555555555555555555555555555555555555555<<<<<3XXX",
"XXXX<<<<<<<5555555555555555555555555555555555555555555<<<<<<<XXX",
"XXXX<<<<<<<<55555555555555555555555555555555555555555<<<<<<<<XXX",
"XXXX<<<<<<<<>>>>>>>>>>>>>>>>>>>>>>>>>>>>>>>>>>>>>>>>><<<<<<<<XXX",
"XXXX<<<<<<<<>>>>>>>>>>>>>>>>>>>>>>>>>>>>>>>>>>>>>>>>><<<<<<<<XXX",
"XXXX<<<<<<<<>>>>>>>>>>>>>>>>>>>>>>>>>>>>>>>>>>>>>>>>><<<<<<<<XXX",
"XXXX<<<<<<<<>>>>>>>>>>>>>>>>>>>>>>>>>>>>>>>>>>>>>>>>><<<<<<<<XXX",
"XXXX<<<<<<<<>>>>>>>>>>>>>>>>>>>>>>>>>>>>>>>>>>>>>>>>><<<<<<<<XXX",
"XXXX<<<<<<<<>>>>>>>>>>>>>>>>>>>>>>>>>>>>>>>>>>>>>>>>><<<<<<<<XXX",
"XXXX<<<<<<<<>>>>>>>>>>>>>>>>>>>>>>>>>>>>>>>>>>>>>>>>><<<<<<<<XXX",
"XXXX<<<<<<<<>>>>>>>>>>>>>>>>>>>>>>>>>>>>>>>>>>>>>>>>><<<<<<<<XXX",
"XXXX<<<<<<<<>>>>>>>>>>>>>>>>>>>>>>>>>>>>>>>>>>>>>>>>><<<<<<<<XXX",
"XXXX<<<<<<<<>>>>>>>>>>>>>>>>>>>>>>>>>>>>>>>>>>>>>>>>><<<<<<<<XXX",
"XXXX<<<<<<<<>>>>>>>>>>>>>>>>>>>>>>>>>>>>>>>>>>>>>>>>><<<<<<<<XXX",
"XXXX<<<<<<<<>>>>>>>>>>>>>>>>>>>>>>>>>>>>>>>>>>>>>>>>><<<<<<<<XXX",
"XXXX<<<<<<<<>>>>>>>>>>>>>>>>>>>>>>>>>>>>>>>>>>>>>>>>><<<<<<<<XXX",
"XXXX<<<<<<<<>>>>>>>>>>>>>>>>>>>>>>>>>>>>>>>>>>>>>>>>><<<<<<<<XXX",
"XXXX<<<<<<<<>>>>>>>>>>>>>>>>>>>>>>>>>>>>>>>>>>>>>>>>><<<<<<<<XXX",
"XXXX<<<<<<<<>>>>>>>>>>>>>>>>>>>>>>>>>>>>>>>>>>>>>>>>><<<<<<<<XXX",
"XXXX<<<<<<<<>>>>>>>>>>>>>>>>>>>>>>>>>>>>>>>>>>>>>>>>><<<<<<<<XXX",
"XXXX<<<<<<<<>>>>>>>>>>>>>>>>>>>>>>>>>>>>>>>>>>>>>>>>><<<<<<<<XXX",
"XXXX<<<<<<<<>>>>>>>>>>>>>>>>>>>>>>>>>>>>>>>>>>>>>>>>><<<<<<<<XXX",
"XXXX<<<<<<<<>>>>>>>>>>>>>>>>>>>>>>>>>>>>>>>>>>>>>>>>><<<<<<<<XXX",
"XXXX<<<<<<<<>>>>>>>>>>>>>>>>>>>>>>>>>>>>>>>>>>>>>>>>><<<<<<<<XXX",
"XXXX<<<<<<<<>>>>>>>>>>>>>>>>>>>>>>>>>>>>>>>>>>>>>>>>><<<<<<<<XXX",
"XXXX<<<<<<<<>>>>>>>>>>>>>>>>>>>>>>>>>>>>>>>>>>>>>>>>><<<<<<<<XXX",
"XXXX<<<<<<<<>>>>>>>>>>>>>>>>>>>>>>>>>>>>>>>>>>>>>>>>><<<<<<<<XXX",
"XXXX<<<<<<<<>>>>>>>>>>>>>>>>>>>>>>>>>>>>>>>>>>>>>>>>><<<<<<<<XXX",
"XXXX<<<<<<<<>>>>>>>>>>>>>>>>>>>>>>>>>>>>>>>>>>>>>>>>><<<<<<<<XXX",
"XXXX<<<<<<<<>>>>>>>>>>>>>>>>>>>>>>>>>>>>>>>>>>>>>>>>><<<<<<<<XXX",
"XXXX<<<<<<<<>>>>>>>>>>>>>>>>>>>>>>>>>>>>>>>>>>>>>>>>><<<<<<<<XXX",
"XXXX<<<<<<<<>>>>>>>>>>>>>>>>>>>>>>>>>>>>>>>>>>>>>>>>><<<<<<<<XXX",
"XXXX<<<<<<<<>>>>>>>>>>>>>>>>>>>>>>>>>>>>>>>>>>>>>>>>><<<<<<<<XXX",
"XXXX<<<<<<<<>>>>>>>>>>>>>>>>>>>>>>>>>>>>>>>>>>>>>>>>><<<<<<<<XXX",
"XXXX<<<<<<<<>>>>>>>>>>>>>>>>>>>>>>>>>>>>>>>>>>>>>>>>><<<<<<<<XXX",
"XXXX<<<<<<<<>>>>>>>>>>>>>>>>>>>>>>>>>>>>>>>>>>>>>>>>><<<<<<<<XXX",
"XXXX<<<<<<<<>>>>>>>>>>>>>>>>>>>>>>>>>>>>>>>>>>>>>>>>><<<<<<<<XXX",
"XXXX<<<<<<<<>>>>>>>>>>>>>>>>>>>>>>>>>>>>>>>>>>>>>>>>><<<<<<<<XXX",
"XXXX<<<<<<<<>>>>>>>>>>>>>>>>>>>>>>>>>>>>>>>>>>>>>>>>><<<<<<<<XXX",
"XXXX<<<<<<<<>>>>>>>>>>>>>>>>>>>>>>>>>>>>>>>>>>>>>>>>><<<<<<<<XXX",
"XXXX<<<<<<<<>>>>>>>>>>>>>>>>>>>>>>>>>>>>>>>>>>>>>>>>><<<<<<<<XXX",
"XXXX<<<<<<<<>>>>>>>>>>>>>>>>>>>>>>>>>>>>>>>>>>>>>>>>><<<<<<<<XXX",
"XXXX<<<<<<<<>>>>>>>>>>>>>>>>>>>>>>>>>>>>>>>>>>>>>>>>><<<<<<<<XXX",
"XXXX<<<<<<<,>>>>>>>>>>>>>>>>>>>>>>>>>>>>>>>>>>>>>>>>>,<<<<<<<XXX",
"XXXX<<<<<<,-------------------------------------------,<<<<<<XXX",
"XXXX<<<<<,---------------------------------------------,<<<<<XXX",
"XXXX<<<<,-----------------------------------------------,<<<<XXX",
"XXXX<<<,-------------------------------------------------,<<<XXX",
"#XXX:<,---------------------------------------------------,<:XXX",
"*XXX$,-----------------------------------------------------,$XXX",
"wXXXo-------------------------------------------------------oXXX",
"tXXXXo.=-------------------------------------------------= XXXXX",
"p0XXXXXXXXXXXXXXXXXXXXXXXXXXXXXXXXXXXXXXXXXXXXXXXXXXXXXXXXXXXXX0",
"puXXXXXXXXXXXXXXXXXXXXXXXXXXXXXXXXXXXXXXXXXXXXXXXXXXXXXXXXXXXXXu",
"ppiqXXXXXXXXXXXXXXXXXXXXXXXXXXXXXXXXXXXXXXXXXXXXXXXXXXXXXXXXXqip"
};
